<svg id="Layer_1" data-name="Layer 1" xmlns="http://www.w3.org/2000/svg" viewBox="0 0 518.44 256.35"><defs><style>.cls-1{fill:#5a621c}.cls-2{fill:#7b303e}.cls-3{fill:#f1f0f2}</style></defs><title>REDI FINAL Light</title><path class="cls-1" d="M248.1 0L147.58 101.81l-10.92-10.93-52.21 52.21H211.9l89-90.29L248.1 0z"/><path class="cls-2" d="M422.5 142.92l-17.97-17.83V62.97h-31.44v30.91l-50.9-50.52-99.73 99.73 200.94.73-.9-.9z"/><path class="cls-3" d="M.22 255.84v-19.29h5.25a21.71 21.71 0 0 1 4.9.43 8.55 8.55 0 0 1 3.15 1.45 8.34 8.34 0 0 1 2.65 3.29 10.77 10.77 0 0 1 .9 4.51 10.68 10.68 0 0 1-.92 4.55 8.31 8.31 0 0 1-2.7 3.27 8.67 8.67 0 0 1-2.93 1.36 20.23 20.23 0 0 1-4.72.42H.22zm4.12-3.48h2.29q3.24 0 4.72-1.48t1.48-4.68a6.38 6.38 0 0 0-1.48-4.67q-1.48-1.48-4.72-1.48H4.34zm20.51 3.48v-19.29h11.36V240H29v4h7.23v3.5H29v4.83h7.23v3.5zm24.61 0l-7.13-19.29h4.56l3.75 12q.11.37.33 1.37t.47 2.28q.17-1.24.38-2.2t.4-1.58L56 236.55h4.51l-7.18 19.29zm17.47 0v-19.29h11.36V240h-7.23v4h7.23v3.5h-7.23v4.83h7.23v3.5zm19.72 0v-19.29h4.12v15.78h6.59v3.5zm36.41-9.61a10 10 0 0 1-.77 3.91 9.59 9.59 0 0 1-2.22 3.24 10.66 10.66 0 0 1-3.39 2.2 10.31 10.31 0 0 1-7.36.16 10.69 10.69 0 0 1-3.1-1.72 9.8 9.8 0 0 1-3.75-7.8 10 10 0 0 1 .76-3.91 9.66 9.66 0 0 1 2.24-3.25 10.43 10.43 0 0 1 11.23-2.19 10.55 10.55 0 0 1 3.37 2.19 9.74 9.74 0 0 1 2.23 3.25 10 10 0 0 1 .76 3.92zm-10.28 6.44a5.65 5.65 0 0 0 4.33-1.84 7 7 0 0 0 0-9.22 5.95 5.95 0 0 0-8.66 0 7.08 7.08 0 0 0 0 9.24 5.71 5.71 0 0 0 4.34 1.83zm18.08 3.17v-19.29h4.74q3.79 0 5.61 1.45a5.39 5.39 0 0 1 1.81 4.48 5.54 5.54 0 0 1-1.83 4.4 7.42 7.42 0 0 1-5.05 1.59H135v7.36zm4.14-10.58h.59a3.57 3.57 0 0 0 2.45-.7 2.9 2.9 0 0 0 .76-2.24 2.59 2.59 0 0 0-.76-2.08 3.75 3.75 0 0 0-2.45-.65H135zm13.51 10.58l2.94-19.29h4.32l3.71 11.36a9.31 9.31 0 0 1 .26 1q.14.68.26 1.57.11-.9.24-1.6a7.24 7.24 0 0 1 .25-1l3.78-11.33h4.26l3 19.29h-3.91l-1.41-11.63q-.16-1.29-.21-2t-.05-1.23v-.72q-.2 1.13-.38 2a11.67 11.67 0 0 1-.32 1.24l-4.08 12.33h-2.32l-4-12.33q-.05-.17-.23-.95t-.49-2.27v.57a28 28 0 0 1-.24 3.29v.05l-1.4 11.63zm29.95 0v-19.29h11.36V240h-7.23v4h7.23v3.5h-7.23v4.83h7.23v3.5zm19.72 0v-19.29h4.28l8.54 11.23a8.73 8.73 0 0 1 .81 1.34q.44.86.92 2-.14-.86-.21-1.7t-.07-2.11v-10.76h3.94v19.29h-4l-8.77-11.44a8.38 8.38 0 0 1-.8-1.34q-.43-.86-.92-2.06.15.83.21 1.68t.07 2.14v11zm34.02-15.78v15.78h-4.14v-15.78h-4.72v-3.5h13.57v3.5zm36.6 15.78l-1.65-1.84a8.75 8.75 0 0 1-2.51 1.8 6.8 6.8 0 0 1-2.79.55 6.5 6.5 0 0 1-4.53-1.51 5.15 5.15 0 0 1-1.68-4 5.1 5.1 0 0 1 1-3 10 10 0 0 1 3.08-2.62 7.3 7.3 0 0 1-1.55-2.07 5.07 5.07 0 0 1-.45-2.15 3.88 3.88 0 0 1 1.4-3.14 5.7 5.7 0 0 1 3.77-1.17 5.52 5.52 0 0 1 3.62 1.11 3.64 3.64 0 0 1 1.34 3 3.93 3.93 0 0 1-.78 2.36 11.15 11.15 0 0 1-2.75 2.41l3.27 3.78q.84-.8 1.53-1.53t1.28-1.46l2.12 2.27q-.67.75-1.38 1.51t-1.55 1.59l3.53 4.27zm-3.62-4.18l-3.64-4.37-.41.29a5.76 5.76 0 0 0-1.45 1.44 2.74 2.74 0 0 0-.46 1.52 2.47 2.47 0 0 0 .8 1.83 2.65 2.65 0 0 0 1.91.78 4.4 4.4 0 0 0 1.83-.38 3.78 3.78 0 0 0 1.41-1.11zm-2.7-8.13l.68-.41a3.5 3.5 0 0 0 1.13-1 2.25 2.25 0 0 0 .38-1.26 1.83 1.83 0 0 0-.51-1.34 1.74 1.74 0 0 0-1.3-.51 1.88 1.88 0 0 0-1.38.52 1.83 1.83 0 0 0-.53 1.36 2.16 2.16 0 0 0 .15.78 2.54 2.54 0 0 0 .44.74zm30.35 12.31v-19.29H297v19.29zm12.84 0v-19.29H310l8.54 11.22a8.63 8.63 0 0 1 .81 1.34q.44.86.92 2-.15-.86-.21-1.7t-.07-2.11v-10.75h3.94v19.29h-4l-8.77-11.44a8.33 8.33 0 0 1-.8-1.34q-.43-.86-.92-2.06.14.83.21 1.68t.07 2.14v11zm31.71 0l-7.13-19.29h4.56l3.76 12q.11.37.33 1.37t.47 2.28q.17-1.24.38-2.2t.4-1.58l3.81-11.9h4.51l-7.18 19.29zm17.48 0v-19.29h11.36V240H359v4h7.23v3.5H359v4.83h7.23v3.5zm18.48-2.45l2.29-2.6a3.51 3.51 0 0 0 1.4 1.68 3.93 3.93 0 0 0 2.16.61 3.53 3.53 0 0 0 2.29-.68 2.25 2.25 0 0 0 .84-1.84q0-1.37-2.81-2.73-.91-.43-1.44-.71a10.7 10.7 0 0 1-3.5-2.58 4.74 4.74 0 0 1-1-3 4.83 4.83 0 0 1 1.89-3.92 7.54 7.54 0 0 1 4.91-1.53 6.91 6.91 0 0 1 3 .61 6.15 6.15 0 0 1 2.25 1.92l-2.39 2.38a3 3 0 0 0-1.15-1.26 3.41 3.41 0 0 0-1.73-.42 3 3 0 0 0-2 .61 2 2 0 0 0-.75 1.59q0 1.53 3 2.79l.91.39a10.18 10.18 0 0 1 3.63 2.53 4.87 4.87 0 0 1 1.18 3.21 5.45 5.45 0 0 1-1.85 4.33 7.3 7.3 0 0 1-5 1.61 8.65 8.65 0 0 1-3.79-.76 5.13 5.13 0 0 1-2.34-2.23zm27.87-13.33v15.78h-4.14v-15.78h-4.72v-3.5h13.57v3.5zm10.06 15.78l2.94-19.29h4.32l3.71 11.36a9.63 9.63 0 0 1 .26 1q.14.68.26 1.57.11-.9.24-1.6a7.07 7.07 0 0 1 .25-1l3.75-11.33h4.26l3 19.29h-3.91l-1.41-11.63q-.16-1.29-.21-2t-.05-1.23v-.72q-.2 1.13-.38 2a11.84 11.84 0 0 1-.32 1.24l-4.08 12.33h-2.32l-4-12.33q-.05-.17-.23-.95t-.49-2.27v.57a27.88 27.88 0 0 1-.24 3.29v.05l-1.4 11.63zm29.96 0v-19.29h11.36V240h-7.23v4h7.23v3.5h-7.23v4.83h7.23v3.5zm19.71 0v-19.29h4.28l8.54 11.22a8.63 8.63 0 0 1 .81 1.34q.44.86.92 2-.15-.86-.21-1.7t-.07-2.11v-10.75h3.94v19.29h-4l-8.77-11.44a8.33 8.33 0 0 1-.8-1.34q-.43-.86-.92-2.06.14.83.21 1.68t.07 2.14v11zM495 240.06v15.78h-4.14v-15.78h-4.72v-3.5h13.57v3.5zm10.47 13.33l2.29-2.6a3.51 3.51 0 0 0 1.4 1.68 3.93 3.93 0 0 0 2.16.61 3.53 3.53 0 0 0 2.29-.68 2.25 2.25 0 0 0 .84-1.84q0-1.37-2.81-2.73-.91-.43-1.44-.71a10.7 10.7 0 0 1-3.5-2.58 4.74 4.74 0 0 1-1-3 4.83 4.83 0 0 1 1.89-3.92 7.54 7.54 0 0 1 4.91-1.53 6.91 6.91 0 0 1 3 .61 6.15 6.15 0 0 1 2.25 1.92l-2.39 2.38a3 3 0 0 0-1.15-1.26 3.41 3.41 0 0 0-1.73-.42 3 3 0 0 0-2 .61 2 2 0 0 0-.75 1.59q0 1.53 3 2.79l.91.39a10.18 10.18 0 0 1 3.63 2.53 4.87 4.87 0 0 1 1.18 3.21 5.45 5.45 0 0 1-1.85 4.33 7.3 7.3 0 0 1-5 1.61 8.65 8.65 0 0 1-3.79-.76 5.13 5.13 0 0 1-2.34-2.23zM33.7 214.51H22.21L10 192.74v21.77H0v-46.59h14.26q8.5 0 12.73 3.29t4.23 9.91a12.25 12.25 0 0 1-2.9 8.21 11.31 11.31 0 0 1-7.48 4zM10 187.78h1.5q6 0 8-1.32t1.94-4.6q0-3.44-2.08-4.89t-7.84-1.45H10zm39.6 26.73l17.73-46.59h11.39l18 46.59H85.37l-3.79-9.9h-18l-3.25 9.9zm29.66-17.73L74 181.73q-.22-.67-.57-2.29t-.73-4q-.41 2.26-.8 4.06t-.57 2.4l-5 14.86zm71.68 17.73h-11.49l-12.25-21.77v21.77h-10v-46.59h14.3q8.5 0 12.73 3.29t4.23 9.91a12.25 12.25 0 0 1-2.9 8.21 11.31 11.31 0 0 1-7.48 4zm-23.74-26.73h1.5q6 0 8-1.32t1.94-4.6q0-3.44-2.08-4.89t-7.84-1.45h-1.5zm45.18 26.73v-46.59h27.43v8.4h-17.47v9.58h17.47v8.47h-17.47V206h17.47v8.46zm81.98 0v-46.59h27.43v8.4h-17.47v9.58h17.47v8.47h-17.47V206h17.47v8.46zm47.31 0l17.73-46.59h11.39l18 46.59h-11.35l-3.79-9.9h-18l-3.25 9.9zm29.66-17.73l-5.22-15.05q-.22-.67-.57-2.29t-.73-4q-.42 2.26-.8 4.06t-.57 2.4l-5 14.86zM403 214.51h-11.47l-12.25-21.77v21.77h-10v-46.59h14.26q8.5 0 12.73 3.29t4.23 9.91a12.25 12.25 0 0 1-2.9 8.21 11.3 11.3 0 0 1-7.48 4zm-23.74-26.73h1.49q6 0 8-1.32t1.94-4.6q0-3.44-2.08-4.89t-7.85-1.45h-1.49zm62.6-11.4v38.13h-10v-38.13h-11.39v-8.46h32.78v8.46zm33.55 38.13v-46.59h10v18.68h20.21v-18.68h10v46.59h-10V195h-20.24v19.48z"/></svg>